<svg xmlns="http://www.w3.org/2000/svg" viewBox="0 0 5369.78 1037.91"><defs><style>.cls-1{fill:#1d1d1b;}</style></defs><g id="Layer_2" data-name="Layer 2"><g id="Layer_1-2" data-name="Layer 1"><path class="cls-1" d="M0,1025.36V37.91C0,9.27,16.85,0,38.76,0H281.41C453.28,0,566.18,104.47,594,254.45c23.59,126.38-7.59,238.43-105.32,326.9C432.22,631.9,364,652.12,283.93,646.22c5.9-20.22,10.11-39.6,17.7-57.29,10.95-24.43,32.86-32,59-32.86,27-.84,54.77,0,81.73-3.37,32-4.21,42.13-19.38,34.54-50.55-3.37-13.48-3.37-26.12,5.06-37.91,10.11-14.33,1.68-23.6-10.95-30.34,12.63-22.74,12.63-21.9-7.59-40.44-8.42-8.42-10.95-17.69-2.52-27A190.65,190.65,0,0,1,479.4,348c14.33-12.64,14.33-16.85.84-31.18-14.32-13.48-28.64-27-43.81-39.6-2.52-2.52-5.05-5.89-10.95-11.79,6.74-4.21,12.64-9.27,19.38-13.48-26.12,6.74-27.81,6.74-33.7-19.38-5.06-23.59-6.74-48-11.8-71.62-3.37-16.85-7.58-33.7-16-48.86-5.05-10.11-17.69-16-27.8-24.44-6.74,53.08-11.8,100.26-17.69,146.6-9.27,72.46-74.15,208.11-85.1,218.22-91,86.78-108.69,217.37-107.84,309.21s85.93,263.71,85.93,263.71Z"/><path class="cls-1" d="M1029.11,1036.05c-149.85,0-254.5-100.07-254.5-243.35V575.13c0-69.81-.44-104.14-10.24-121.54-9.18-16.28-28.76-18.41-67.77-22.65l-2.25-.23c-6.89-.23-11.66-7.34-11.66-13.73a11.6,11.6,0,0,1,11.69-11.74,10.69,10.69,0,0,1,1.27.07c36.87,4.39,79,6.43,132.62,6.43,37.08,0,82.76-2.63,111.07-6.4a10.06,10.06,0,0,1,1.44-.1,12.13,12.13,0,0,1,10.72,6.4,14.18,14.18,0,0,1,1.71,6.82c0,7.85-5.73,12.14-11.23,12.28-41.54,3.47-60.3,5.71-69.38,21.76-10.19,18-10.19,55.17-10.19,122.63v199c0,103.34,58.74,207.61,189.94,207.61,119.4,0,182.51-66.32,182.51-191.79V566.76c0-122.59-8.4-127.73-84.88-136-6.84-.22-11-6.93-11-13.14a12.68,12.68,0,0,1,2-6.94,11.82,11.82,0,0,1,10-5.39,9.82,9.82,0,0,1,1.43.1c37.36,4.54,57.83,6.4,110.14,6.4,36.25,0,61.9-2.45,91.54-6.4a10.16,10.16,0,0,1,1.44-.1,12.12,12.12,0,0,1,10.72,6.4,14.21,14.21,0,0,1,1.72,6.82c0,7.85-5.74,12.14-11.24,12.28-80.57,6.75-83.28,19.82-83.28,136V799.21C1273.39,943.08,1177.5,1036.05,1029.11,1036.05Z"/><path class="cls-1" d="M2079.35,1031.51c-175.78,0-306.82-106.39-360.19-292.1-18.5,3.14-41.7,4.79-67.52,4.79-5.68,0-10.05.07-13.8.13-3.15.06-5.7.1-8.2.1s-5.27,0-9-.23V847.67c0,69.87,0,104.94,9.82,122.19,9.09,16,28,17.35,69.34,20.36a11,11,0,0,1,6.87,3.13c3.94,3.91,5.44,11.6,3.29,16.81a11.83,11.83,0,0,1-11,7.4,11.32,11.32,0,0,1-1.43-.09,936.56,936.56,0,0,0-111.07-7.34c-48.65,0-92,2.4-132.58,7.35a10.16,10.16,0,0,1-1.32.08,11.6,11.6,0,0,1-10.76-7.17c-2.84-6.89,1.54-14.56,4-17a10.93,10.93,0,0,1,6.64-3.14l3.83-.37c40-3.85,58.23-5.61,67-21.55,9.51-17.23,9.51-51.79,9.51-120.66V567.8c0-116.15-6.82-135.09-48.62-135.09-10.16,0-21.94,2.23-32.11,4.41a11.15,11.15,0,0,1-2.29.25,12.13,12.13,0,0,1-11.6-9.66A13,13,0,0,1,1445,413a10,10,0,0,1,1.51-.62c32.76-10.65,103.2-15.4,228.36-15.4,155.24,0,244.27,54.47,244.27,149.43,0,55-32.6,128.22-123.65,170.44,49.31,130.95,188.68,288.22,284.77,288.22,6.74,0,11.82,5.69,11.82,13.22a13.72,13.72,0,0,1-2.23,7.64A12.6,12.6,0,0,1,2079.35,1031.51ZM1620.69,709c10.35.42,16.85.42,30,.42,178.79,0,178.79-92.57,178.79-123,0-52.76-13.38-90.85-40.9-116.43-27.25-25.34-69.58-38.18-125.81-38.18a350,350,0,0,0-35.83,1.85c-4.16,21-6.27,63.27-6.27,125.79Z"/><path class="cls-1" d="M2090.56,1030.36a11.43,11.43,0,0,1-10.12-6,12.83,12.83,0,0,1-1.57-6.3c0-6.3,3.82-15.14,12.31-15.35l6.6-.66c41.26-4,62-6,71.33-22.18,10-17.32,10-52,10-121.16V576.89c0-69.2,0-103.94-10-121.46-9.32-16.39-29.86-18.75-70.76-23.45l-8.89-1c-6.76-.23-10.94-7-10.94-13.27a13,13,0,0,1,2-7,11.8,11.8,0,0,1,10-5.44h.38c60.48,4.29,145.87,6.56,246.95,6.56,73.53,0,134.69-3.56,173-6.54.23,0,.54,0,.83,0A10.82,10.82,0,0,1,2520,409a11.12,11.12,0,0,1,2.46,9.54,227.93,227.93,0,0,0-4.41,45.61c0,9.57.93,27.53,1.78,34.33a12.59,12.59,0,0,1,.08,1.37c0,5.53-4.22,11.4-12,11.4a22.39,22.39,0,0,1-5.69-.81c-7.6-2.09-9.18-7.63-9.51-9.92-5.65-32.66-14.41-49.78-138.92-49.78h-82.4c-2.88,27.1-4.34,67.91-4.34,121.44V688h88.6c85.29,0,88.22-12.66,93.53-35.64a10.94,10.94,0,0,1,5.72-7.34,19,19,0,0,1,8.37-1.88c8.53,0,13,5.89,13,11.72a10.76,10.76,0,0,1-.37,2.82c-3.34,12.68-7.07,41.64-7.07,62.93,0,10.46.93,29.41,1.77,36.21a10.74,10.74,0,0,1,.09,1.37,11.38,11.38,0,0,1-11.86,11.4,18.87,18.87,0,0,1-5.74-1c-4.9-1.62-8.07-5.18-8.73-9.76-4.65-25.86-6.59-36.64-88.7-36.64H2267v144c0,117.68,18.26,117.68,51.4,117.68h47.42c140.53,0,143.28-13.28,154.84-69.21a11,11,0,0,1,10.67-8.75l.15,0,.41-.06a24.13,24.13,0,0,1,3.57-.32,12.55,12.55,0,0,1,9.15,3.64,11.14,11.14,0,0,1,3,9.53c-4,25-12.48,67.45-17.94,86.76s-14.77,23-30,23c-14,0-32-1-52.87-2.08l-.69,0c-29.17-1.56-65.47-3.51-104.51-3.51-90.89,0-184.46,2.79-250.28,7.48Z"/><path class="cls-1" d="M3568.77,1024c-.43,0-.86,0-1.28-.07-27.51-3.55-81-7.37-119.59-7.37-52.78,0-87,2.82-125.17,7.36a9.31,9.31,0,0,1-1.29.08,11.59,11.59,0,0,1-10.76-7.19c-2.85-6.91,1.57-14.58,4-17a10.92,10.92,0,0,1,6.59-3.11l1.4-.14c34.37-3.48,51.62-5.22,60.51-21.29,9.45-17.05,11-51.15,11-121.15V727.35h-333.4V854.07c0,137.43,1.33,137.53,70.79,142.55a10.92,10.92,0,0,1,6.91,3.16c3.92,3.91,5.4,11.61,3.24,16.81a11.83,11.83,0,0,1-10.94,7.37,11.28,11.28,0,0,1-1.42-.09c-36.57-4.88-71.12-7.35-102.72-7.35-50.3,0-101.68,2.69-141,7.36a9.26,9.26,0,0,1-1.28.08,11.46,11.46,0,0,1-10.13-5.94,12.56,12.56,0,0,1-1.57-6.23c0-6.24,3.83-15,12.31-15.19l6.6-.66c41.26-4,62-6,71.34-22,10-17.13,10-51.48,10-119.91V575.13c0-68.55,0-102.95-9.88-120.31-9.24-16.2-29.58-18.52-70.11-23.13l-8.7-1c-6.84-.24-11.59-7.34-11.59-13.72a11.6,11.6,0,0,1,11.7-11.74,10.93,10.93,0,0,1,1.27.07c35.34,4.21,84.09,6.43,141,6.43a798.77,798.77,0,0,0,102.7-6.4,10.16,10.16,0,0,1,1.44-.1,12.12,12.12,0,0,1,10.72,6.4,14.22,14.22,0,0,1,1.71,6.82c0,7.85-5.73,12.14-11.23,12.28-71.19,6-71.2,11.34-71.2,144.39V692.55h333.4V575.13c0-70.44-1.62-104.78-11.23-122.08-9.07-16.33-26.58-18.36-61.41-22.32-7-.24-11.84-7.35-11.84-13.75a11.6,11.6,0,0,1,11.69-11.74,10.69,10.69,0,0,1,1.27.07c39.42,4.69,73.34,6.43,125.19,6.43,38.45,0,92-2.88,119.48-6.41a12.08,12.08,0,0,1,1.39-.09,11.82,11.82,0,0,1,10,5.39,12.68,12.68,0,0,1,2,6.94c0,6.4-4.37,13-11.71,13.17-44.14,3.72-66.32,5.61-76.38,21.12C3482,468.27,3482,501.41,3482,567.44V865.38c0,63.72-.05,95.7,10.48,111.41,10,14.87,32,16.54,76,19.82,8.27.17,12,8.93,12,15.18A11.81,11.81,0,0,1,3568.77,1024Z"/><path class="cls-1" d="M4282,1024a11.32,11.32,0,0,1-1.43-.09c-25.17-3.36-63.41-7.35-102.71-7.35-51,0-98.72,2.55-138.15,7.36a10.56,10.56,0,0,1-1.33.08,11.62,11.62,0,0,1-10.75-7.17c-2.85-6.89,1.54-14.56,4-17a11,11,0,0,1,6.63-3.15c54.26-5.31,59-8.84,59-24.48,0-21.22-12.66-55.5-26.06-91.79-2.86-7.74-5.77-15.61-8.62-23.54L4036.33,785H3838.25l-30.67,72.39-6.47,15.48c-19,45.24-32.64,77.93-32.64,99.29,0,9.43,0,20.12,53.22,24.47a10.94,10.94,0,0,1,6.81,3.14c2.45,2.47,6.83,10.14,4,17a11.63,11.63,0,0,1-10.76,7.18,11.32,11.32,0,0,1-1.43-.09l-10.58-1.44c-23-3.17-42.89-5.91-75.4-5.91-39.09,0-49.5,1.5-68.39,4.22-6.4.92-13.64,2-23.27,3.14a10,10,0,0,1-1.31.08,11.6,11.6,0,0,1-10.77-7.19c-2.84-6.91,1.57-14.58,4-17a10.87,10.87,0,0,1,6.88-3.13c54.77-4,75.8-34.74,124.72-146l196.17-449.08a13.91,13.91,0,0,1,12.78-7.93,13.77,13.77,0,0,1,12.53,7.44,4.83,4.83,0,0,1,.23.52l167.6,449.63c41.69,113.28,54.3,140.21,127.25,145.42a10.91,10.91,0,0,1,6.93,3.16c3.91,3.92,5.4,11.61,3.24,16.81A11.85,11.85,0,0,1,4282,1024ZM4024,751.12l-76.79-219.4-94,219.4Z"/><path class="cls-1" d="M4621.53,1024a11.16,11.16,0,0,1-1.42-.09c-26.57-3.54-72.65-7.35-111.09-7.35-48.64,0-92,2.41-132.57,7.36a10.52,10.52,0,0,1-1.32.08,11.59,11.59,0,0,1-10.76-7.19c-2.84-6.86,1.54-14.53,4-17a11,11,0,0,1,6.65-3.15l3.94-.38c40.84-4,57.76-6.2,66.39-21.58,9.62-17.15,10-51.25,10-120.61V575.13c0-65.55-.51-103.51-10.9-121.47-9.46-16.36-29-18.48-67.87-22.7l-2.42-.25c-6.81-.22-11-6.93-11-13.15a12.66,12.66,0,0,1,2-7,11.81,11.81,0,0,1,9.95-5.36c.15,0,1,0,1.43.1,35.86,4.36,78,6.4,132.46,6.4,37.09,0,82.76-2.63,111.07-6.4a10.06,10.06,0,0,1,1.44-.1,11.82,11.82,0,0,1,10,5.38,12.64,12.64,0,0,1,2,6.94c0,6.4-4.37,13-11.71,13.18-41,3.47-59.58,5.7-68.55,21.73-10.08,18-10.08,55.19-10.08,122.66V854.07c0,69.88,0,105,9.71,122.21,9,16,27.65,17.33,68.53,20.35a10.89,10.89,0,0,1,6.88,3.13c2.47,2.48,6.85,10.15,4,17A11.58,11.58,0,0,1,4621.53,1024Z"/><path class="cls-1" d="M5357,1037.91c-175.77,0-306.82-106.39-360.2-292.1-18.49,3.13-41.69,4.79-67.51,4.79-5.68,0-10.06.07-13.81.13-3.14,0-5.7.1-8.19.1s-5.27,0-8.95-.23V854.07c0,69.87,0,104.94,9.82,122.19,9.08,16,28,17.35,69.34,20.36a11,11,0,0,1,6.9,3.15c3.92,3.93,5.41,11.62,3.25,16.82a11.85,11.85,0,0,1-10.94,7.37,11.44,11.44,0,0,1-1.43-.09,936.4,936.4,0,0,0-111.08-7.35c-48.64,0-92,2.41-132.57,7.36a10.4,10.4,0,0,1-1.32.08,11.59,11.59,0,0,1-10.76-7.19c-2.84-6.86,1.54-14.53,4-17a11,11,0,0,1,6.65-3.15l3.83-.36c40-3.86,58.23-5.61,67-21.55,9.51-17.23,9.51-51.8,9.51-120.66V574.2c0-116.15-6.82-135.09-48.61-135.09-10.17,0-21.94,2.23-32.12,4.41a11,11,0,0,1-2.28.24,12.12,12.12,0,0,1-11.6-9.65,13,13,0,0,1,6.73-14.7,9.55,9.55,0,0,1,1.54-.63c32.75-10.65,103.19-15.41,228.35-15.41,155.23,0,244.26,54.47,244.26,149.44,0,55-32.6,128.22-123.64,170.43,49.3,131,188.67,288.23,284.77,288.23,6.74,0,11.82,5.69,11.82,13.23a13.67,13.67,0,0,1-2.24,7.64A12.44,12.44,0,0,1,5357,1037.91ZM4898.37,715.37c10.35.42,16.84.42,30,.42,178.8,0,178.8-92.57,178.8-123,0-52.75-13.38-90.84-40.9-116.43C5039,451,4996.7,438.19,4940.47,438.19a350.17,350.17,0,0,0-35.84,1.85c-4.15,21-6.26,63.28-6.26,125.79Z"/></g></g></svg>