<svg xmlns="http://www.w3.org/2000/svg" viewBox="0 0 3036.93 1764.58"><defs><style>.cls-1{fill:#1d1d1b;}</style></defs><g id="Layer_2" data-name="Layer 2"><g id="Layer_1-2" data-name="Layer 1"><path class="cls-1" d="M0,1750.58V64.73C0,15.82,28.77,0,66.17,0H480.44C773.88,0,966.63,178.37,1014.1,434.41c40.28,215.76-13,407.08-179.8,558.11-96.38,86.31-212.89,120.83-349.55,110.76,10.07-34.52,17.27-67.6,30.21-97.81,18.7-41.72,56.1-54.66,100.69-56.1,46-1.44,93.5,0,139.53-5.75,54.66-7.2,71.92-33.09,59-86.31-5.76-23-5.76-44.59,8.63-64.73,17.26-24.45,2.87-40.28-18.7-51.78,21.57-38.84,21.57-37.4-13-69-14.38-14.38-18.7-30.21-4.31-46a328.1,328.1,0,0,1,31.64-31.64c24.46-21.58,24.46-28.77,1.44-53.23-24.45-23-48.91-46-74.8-67.6-4.31-4.32-8.63-10.07-18.7-20.14,11.51-7.19,21.58-15.82,33.09-23C714.91,441.6,712,441.6,702,397c-8.63-40.28-11.51-82-20.14-122.27-5.75-28.77-12.94-57.54-27.33-83.43C645.86,174.05,624.28,164,607,149.6c-11.51,90.62-20.14,171.17-30.2,250.29C561,523.59,450.23,755.18,431.53,772.44,276.18,920.6,246,1143.56,247.41,1300.35s146.72,450.23,146.72,450.23Z"/><path class="cls-1" d="M1419.93,1038.82c-143.08,0-243-95.55-243-232.36V598.7c0-66.66-.41-99.44-9.77-116.05-8.77-15.55-27.46-17.58-64.71-21.63l-2.15-.22c-6.58-.21-11.13-7-11.13-13.11a11.07,11.07,0,0,1,11.16-11.21,10,10,0,0,1,1.22.07c35.2,4.19,75.43,6.14,126.63,6.14,35.4,0,79-2.52,106-6.12a10.78,10.78,0,0,1,1.38-.09,11.59,11.59,0,0,1,10.23,6.11,13.57,13.57,0,0,1,1.64,6.52c0,7.49-5.48,11.59-10.73,11.72-39.66,3.32-57.58,5.45-66.25,20.78-9.72,17.19-9.72,52.68-9.72,117.09v190c0,98.67,56.08,198.24,181.37,198.24,114,0,174.27-63.33,174.27-183.15V590.71c0-117-8-122-81.05-129.91-6.54-.21-10.54-6.61-10.54-12.55a12.11,12.11,0,0,1,1.91-6.62,11.28,11.28,0,0,1,9.52-5.15,10.62,10.62,0,0,1,1.37.09c35.67,4.35,55.21,6.12,105.17,6.12,34.61,0,59.1-2.34,87.41-6.12a10.62,10.62,0,0,1,1.37-.09,11.6,11.6,0,0,1,10.24,6.11,13.69,13.69,0,0,1,1.64,6.52c0,7.49-5.48,11.59-10.73,11.72-76.94,6.45-79.53,18.93-79.53,129.88v222C1653.18,950.05,1561.63,1038.82,1419.93,1038.82Z"/><path class="cls-1" d="M2422.76,1034.49c-167.84,0-293-101.59-343.93-278.92-17.66,3-39.82,4.57-64.47,4.57-5.42,0-9.6.07-13.17.13-3,.05-5.45.09-7.83.09s-5,0-8.55-.22v98.8c0,66.72,0,100.21,9.37,116.68,8.68,15.25,26.71,16.56,66.21,19.44a10.46,10.46,0,0,1,6.57,3c3.75,3.73,5.19,11.08,3.14,16.05a11.32,11.32,0,0,1-10.46,7.07,10.24,10.24,0,0,1-1.36-.09,895.45,895.45,0,0,0-106.07-7c-46.44,0-87.85,2.29-126.59,7a9.32,9.32,0,0,1-1.26.08,11.08,11.08,0,0,1-10.27-6.86c-2.72-6.57,1.47-13.89,3.8-16.23a10.49,10.49,0,0,1,6.34-3l3.66-.34c38.17-3.69,55.6-5.36,64-20.59C1901,957.7,1901,924.7,1901,858.94V591.7c0-110.9-6.51-129-46.42-129-9.71,0-21,2.12-30.67,4.2a10,10,0,0,1-2.18.24,11.58,11.58,0,0,1-11.08-9.22,12.4,12.4,0,0,1,6.44-14,8.69,8.69,0,0,1,1.45-.6c31.28-10.17,98.54-14.71,218-14.71,148.23,0,233.24,52,233.24,142.69,0,52.56-31.13,122.43-118.07,162.74,47.09,125.05,180.17,275.22,271.92,275.22,6.44,0,11.29,5.43,11.29,12.62a13.16,13.16,0,0,1-2.13,7.3A12.05,12.05,0,0,1,2422.76,1034.49Zm-438-308c9.88.41,16.08.41,28.66.41,170.72,0,170.72-88.4,170.72-117.45,0-50.37-12.77-86.74-39.05-111.17-26-24.19-66.44-36.46-120.13-36.46a335.47,335.47,0,0,0-34.22,1.77c-4,20.06-6,60.42-6,120.12Z"/><path class="cls-1" d="M2433.47,1033.39a10.9,10.9,0,0,1-9.66-5.73,12.19,12.19,0,0,1-1.5-6c0-6,3.65-14.45,11.75-14.65l6.3-.64c39.4-3.82,59.16-5.73,68.12-21.18,9.58-16.53,9.58-49.67,9.58-115.69V600.38c0-66.08,0-99.24-9.52-116-8.9-15.64-28.51-17.89-67.57-22.38l-8.48-1c-6.46-.22-10.45-6.68-10.45-12.68a12.35,12.35,0,0,1,1.91-6.69,11.26,11.26,0,0,1,9.52-5.2h.36c57.75,4.1,139.29,6.26,235.8,6.26,70.22,0,128.61-3.39,165.23-6.23a6.58,6.58,0,0,1,.8,0,10.37,10.37,0,0,1,7.83,3.59,10.64,10.64,0,0,1,2.34,9.12,217.65,217.65,0,0,0-4.21,43.55c0,9.13.89,26.28,1.7,32.78a11.2,11.2,0,0,1,.08,1.3c0,5.28-4,10.88-11.51,10.88a21.6,21.6,0,0,1-5.43-.76c-7.26-2-8.77-7.29-9.08-9.47-5.39-31.19-13.76-47.54-132.65-47.54h-78.68c-2.75,25.88-4.14,64.85-4.14,116V706.48h84.59c81.45,0,84.24-12.09,89.31-34a10.45,10.45,0,0,1,5.47-7,18.18,18.18,0,0,1,8-1.8c8.14,0,12.4,5.63,12.4,11.19a10.7,10.7,0,0,1-.35,2.7c-3.19,12.11-6.75,39.76-6.75,60.09,0,10,.88,28.08,1.69,34.57a9.84,9.84,0,0,1,.09,1.31A10.87,10.87,0,0,1,2785,784.39a18,18,0,0,1-5.48-.92c-4.68-1.55-7.71-5-8.33-9.32-4.45-24.69-6.3-35-84.71-35h-84.59V876.66C2601.91,989,2619.34,989,2651,989h45.28c134.18,0,136.8-12.69,147.85-66.09a10.49,10.49,0,0,1,10.18-8.36l.14,0,.4,0a23.4,23.4,0,0,1,3.41-.31,12,12,0,0,1,8.74,3.48,10.63,10.63,0,0,1,2.91,9.1c-3.79,23.89-11.92,64.4-17.13,82.84s-14.1,22-28.65,22c-13.37,0-30.57-.92-50.48-2l-.66,0c-27.86-1.5-62.52-3.36-99.8-3.36-86.79,0-176.12,2.67-239,7.15Z"/><path class="cls-1" d="M1327.86,1751.26c-.42,0-.82,0-1.23-.07-26.26-3.39-77.32-7-114.19-7-50.4,0-83.1,2.69-119.52,7a10.14,10.14,0,0,1-1.23.07,11.08,11.08,0,0,1-10.28-6.87c-2.71-6.6,1.5-13.91,3.84-16.24a10.48,10.48,0,0,1,6.29-3l1.33-.13c32.82-3.32,49.29-5,57.79-20.33,9-16.28,10.53-48.84,10.53-115.68V1468H842.85v121c0,131.23,1.26,131.32,67.59,136.11a10.52,10.52,0,0,1,6.6,3c3.74,3.73,5.15,11.08,3.09,16a11.28,11.28,0,0,1-10.44,7,10.24,10.24,0,0,1-1.36-.09,749.29,749.29,0,0,0-98.08-7c-48,0-97.1,2.56-134.61,7a10.14,10.14,0,0,1-1.23.07,10.92,10.92,0,0,1-9.66-5.67,12,12,0,0,1-1.5-5.95c0-6,3.65-14.31,11.75-14.51l6.3-.63c39.4-3.77,59.16-5.67,68.12-21C759,1687.18,759,1654.38,759,1589V1322.69c0-65.45,0-98.31-9.44-114.88-8.82-15.47-28.24-17.68-66.94-22.08l-8.31-1c-6.53-.23-11.06-7-11.06-13.1a11.06,11.06,0,0,1,11.16-11.21,10,10,0,0,1,1.22.07c33.75,4,80.29,6.14,134.62,6.14a760.65,760.65,0,0,0,98.06-6.12,10.78,10.78,0,0,1,1.38-.09,11.57,11.57,0,0,1,10.23,6.11,13.58,13.58,0,0,1,1.64,6.51c0,7.5-5.48,11.6-10.73,11.73-68,5.75-68,10.83-68,137.87v112.12h318.34V1322.69c0-67.26-1.54-100-10.72-116.57-8.65-15.59-25.38-17.53-58.64-21.32-6.68-.23-11.3-7-11.3-13.12a11.06,11.06,0,0,1,11.16-11.21,10,10,0,0,1,1.22.07c37.63,4.47,70,6.14,119.53,6.14,36.72,0,87.9-2.75,114.09-6.13a10.84,10.84,0,0,1,1.33-.08,11.29,11.29,0,0,1,9.52,5.14,12.14,12.14,0,0,1,1.91,6.63c0,6.11-4.18,12.43-11.18,12.58-42.16,3.55-63.33,5.36-72.93,20.16C1245,1220.66,1245,1252.3,1245,1315.35v284.49c0,60.84,0,91.38,10,106.38,9.52,14.2,30.59,15.79,72.54,18.93,7.89.15,11.44,8.53,11.44,14.49A11.28,11.28,0,0,1,1327.86,1751.26Z"/><path class="cls-1" d="M2008.88,1751.26a10.24,10.24,0,0,1-1.36-.09c-24-3.2-60.55-7-98.08-7-48.65,0-94.26,2.43-131.91,7a9.59,9.59,0,0,1-1.27.08,11.09,11.09,0,0,1-10.27-6.85c-2.71-6.58,1.47-13.9,3.8-16.23a10.43,10.43,0,0,1,6.34-3c51.81-5.08,56.32-8.45,56.32-23.38,0-20.27-12.09-53-24.89-87.64-2.73-7.39-5.51-14.91-8.23-22.48l-25-68.59H1585.17l-29.28,69.12-6.18,14.78c-18.09,43.2-31.17,74.41-31.17,94.81,0,9,0,19.21,50.82,23.36a10.46,10.46,0,0,1,6.5,3c2.34,2.35,6.53,9.67,3.81,16.24a11.09,11.09,0,0,1-10.27,6.85,10.39,10.39,0,0,1-1.37-.09l-10.1-1.37c-22-3-41-5.64-72-5.64-37.34,0-47.27,1.43-65.31,4-6.11.88-13,1.87-22.21,3a9.32,9.32,0,0,1-1.26.08,11.07,11.07,0,0,1-10.28-6.87c-2.72-6.6,1.5-13.91,3.83-16.24a10.5,10.5,0,0,1,6.58-3c52.29-3.85,72.37-33.16,119.08-139.41l187.32-428.81a13.63,13.63,0,0,1,24.17-.47c.08.16.15.33.22.5l160,429.33c39.8,108.16,51.84,133.88,121.5,138.85a10.38,10.38,0,0,1,6.62,3c3.73,3.73,5.15,11.08,3.09,16A11.3,11.3,0,0,1,2008.88,1751.26Zm-246.39-260.52-73.33-209.5-89.78,209.5Z"/><path class="cls-1" d="M2333.09,1751.26a10.2,10.2,0,0,1-1.35-.09,909.48,909.48,0,0,0-106.07-7c-46.45,0-87.86,2.3-126.59,7a9.66,9.66,0,0,1-1.26.08,11.05,11.05,0,0,1-10.27-6.86c-2.72-6.55,1.46-13.88,3.79-16.22a10.48,10.48,0,0,1,6.34-3l3.76-.37c39-3.8,55.16-5.92,63.4-20.61,9.18-16.37,9.59-48.93,9.59-115.16V1322.69c0-62.59-.49-98.84-10.41-116-9-15.62-27.68-17.64-64.81-21.67l-2.31-.24c-6.5-.21-10.51-6.61-10.51-12.56a12.06,12.06,0,0,1,1.93-6.64,11.26,11.26,0,0,1,9.5-5.12c.14,0,1,0,1.36.09,34.25,4.17,74.47,6.12,126.49,6.12,35.41,0,79-2.52,106-6.12a10.74,10.74,0,0,1,1.37-.09,11.29,11.29,0,0,1,9.52,5.14,12,12,0,0,1,1.92,6.62c0,6.12-4.18,12.44-11.19,12.59-39.19,3.31-56.89,5.44-65.45,20.74-9.62,17.21-9.62,52.7-9.62,117.13V1589c0,66.73,0,100.22,9.27,116.7,8.57,15.23,26.39,16.55,65.44,19.42a10.43,10.43,0,0,1,6.57,3c2.35,2.36,6.53,9.69,3.81,16.25A11.05,11.05,0,0,1,2333.09,1751.26Z"/><path class="cls-1" d="M3024.76,1764.58c-167.84,0-293-101.59-344-278.92-17.65,3-39.8,4.58-64.45,4.58-5.43,0-9.61.06-13.19.12-3,.06-5.44.1-7.83.1s-5,0-8.53-.22V1589c0,66.71,0,100.2,9.36,116.67,8.68,15.25,26.71,16.57,66.22,19.44a10.52,10.52,0,0,1,6.59,3c3.74,3.74,5.16,11.09,3.1,16a11.31,11.31,0,0,1-10.45,7,10.35,10.35,0,0,1-1.36-.09,895.42,895.42,0,0,0-106.06-7c-46.45,0-87.86,2.3-126.6,7a9.32,9.32,0,0,1-1.26.08,11.06,11.06,0,0,1-10.27-6.86c-2.72-6.55,1.47-13.88,3.8-16.22a10.45,10.45,0,0,1,6.35-3l3.65-.35c38.17-3.68,55.6-5.36,64-20.58,9.07-16.45,9.07-49.46,9.07-115.21V1321.8c0-110.91-6.51-129-46.41-129-9.71,0-20.95,2.13-30.67,4.21a10.62,10.62,0,0,1-2.18.23,11.57,11.57,0,0,1-11.07-9.22,12.35,12.35,0,0,1,6.42-14,9.62,9.62,0,0,1,1.47-.6c31.28-10.17,98.53-14.71,218-14.71,148.23,0,233.24,52,233.24,142.69,0,52.55-31.13,122.43-118.07,162.74,47.09,125,180.17,275.22,271.92,275.22,6.44,0,11.29,5.42,11.29,12.62a13.08,13.08,0,0,1-2.14,7.3A11.86,11.86,0,0,1,3024.76,1764.58Zm-438-308c9.87.4,16.07.4,28.65.4,170.72,0,170.72-88.39,170.72-117.44,0-50.38-12.77-86.74-39-111.18-26-24.19-66.44-36.45-120.13-36.45a332.78,332.78,0,0,0-34.22,1.77c-4,20.06-6,60.42-6,120.11Z"/></g></g></svg>